# Blender v2.79 (sub 0) OBJ File: ''
# www.blender.org
mtllib 3d_cursor.mtl
o Sphere.001
v 0.000000 -3.555570 -0.831469
v 0.000000 -3.382683 -0.923879
v 0.180240 -3.382683 -0.906127
v 0.162212 -3.555570 -0.815493
v 0.000000 -3.707107 -0.707106
v 0.137950 -3.707107 -0.693520
v 0.000000 -3.831470 -0.555570
v 0.108386 -3.831470 -0.544895
v 0.000000 -3.923880 -0.382683
v 0.074658 -3.923880 -0.375330
v 0.000000 -3.980785 -0.195090
v 0.038060 -3.980785 -0.191341
v 0.000000 -4.000000 -0.000000
v 0.000000 -3.195090 -0.980784
v 0.000000 -3.000000 -0.999999
v 0.195090 -3.000000 -0.980785
v 0.191342 -3.195090 -0.961940
v 0.375330 -3.195090 -0.906127
v 0.353554 -3.382683 -0.853553
v 0.318190 -3.555570 -0.768178
v 0.270598 -3.707107 -0.653281
v 0.212608 -3.831470 -0.513280
v 0.146447 -3.923880 -0.353553
v 0.074658 -3.980785 -0.180240
v 0.382684 -3.000000 -0.923879
v 0.308658 -3.831470 -0.461940
v 0.212608 -3.923880 -0.318189
v 0.108386 -3.980785 -0.162211
v 0.555570 -3.000000 -0.831469
v 0.544895 -3.195090 -0.815493
v 0.513280 -3.382683 -0.768178
v 0.461940 -3.555570 -0.691342
v 0.392848 -3.707107 -0.587938
v 0.653282 -3.382683 -0.653281
v 0.587938 -3.555570 -0.587938
v 0.500000 -3.707107 -0.500000
v 0.392848 -3.831470 -0.392847
v 0.270598 -3.923880 -0.270598
v 0.137950 -3.980785 -0.137949
v 0.707107 -3.000000 -0.707107
v 0.693520 -3.195090 -0.693520
v 0.318190 -3.923880 -0.212607
v 0.162212 -3.980785 -0.108386
v 0.831470 -3.000000 -0.555570
v 0.815493 -3.195090 -0.544895
v 0.768178 -3.382683 -0.513280
v 0.691342 -3.555570 -0.461940
v 0.587938 -3.707107 -0.392847
v 0.461940 -3.831470 -0.308658
v 0.853554 -3.382683 -0.353553
v 0.768178 -3.555570 -0.318189
v 0.653282 -3.707107 -0.270598
v 0.513280 -3.831470 -0.212607
v 0.353554 -3.923880 -0.146446
v 0.180240 -3.980785 -0.074658
v 0.923880 -3.000000 -0.382683
v 0.906128 -3.195090 -0.375330
v 0.375330 -3.923880 -0.074658
v 0.191342 -3.980785 -0.038060
v 0.980785 -3.000000 -0.195090
v 0.961940 -3.195090 -0.191341
v 0.906128 -3.382683 -0.180240
v 0.815493 -3.555570 -0.162211
v 0.693520 -3.707107 -0.137949
v 0.544895 -3.831470 -0.108386
v 0.831470 -3.555570 -0.000000
v 0.707107 -3.707107 -0.000000
v 0.555570 -3.831470 -0.000000
v 0.382684 -3.923880 -0.000000
v 0.195090 -3.980785 -0.000000
v 1.000000 -3.000000 -0.000000
v 0.980785 -3.195090 -0.000000
v 0.923880 -3.382683 -0.000000
v 0.191342 -3.980785 0.038061
v 0.980785 -3.000000 0.195091
v 0.961940 -3.195090 0.191342
v 0.906128 -3.382683 0.180240
v 0.815493 -3.555570 0.162212
v 0.693520 -3.707107 0.137950
v 0.544895 -3.831470 0.108387
v 0.375330 -3.923880 0.074658
v 0.653282 -3.707107 0.270598
v 0.513280 -3.831470 0.212608
v 0.353553 -3.923880 0.146447
v 0.180240 -3.980785 0.074658
v 0.923880 -3.000000 0.382684
v 0.906127 -3.195090 0.375331
v 0.853554 -3.382683 0.353554
v 0.768178 -3.555570 0.318190
v 0.831470 -3.000000 0.555571
v 0.815493 -3.195090 0.544895
v 0.768178 -3.382683 0.513280
v 0.691342 -3.555570 0.461940
v 0.587938 -3.707107 0.392848
v 0.461940 -3.831470 0.308659
v 0.318190 -3.923880 0.212608
v 0.162212 -3.980785 0.108387
v 0.500000 -3.707107 0.500000
v 0.392848 -3.831470 0.392848
v 0.270598 -3.923880 0.270598
v 0.137950 -3.980785 0.137950
v 0.707107 -3.000000 0.707107
v 0.693520 -3.195090 0.693520
v 0.653282 -3.382683 0.653282
v 0.587938 -3.555570 0.587938
v 0.544895 -3.195090 0.815493
v 0.513280 -3.382683 0.768178
v 0.461940 -3.555570 0.691342
v 0.392848 -3.707107 0.587938
v 0.308658 -3.831470 0.461940
v 0.212608 -3.923880 0.318190
v 0.108386 -3.980785 0.162212
v 0.555570 -3.000000 0.831470
v 0.212608 -3.831470 0.513280
v 0.146447 -3.923880 0.353554
v 0.074658 -3.980785 0.180240
v 0.382683 -3.000000 0.923880
v 0.375330 -3.195090 0.906128
v 0.353553 -3.382683 0.853554
v 0.318190 -3.555570 0.768178
v 0.270598 -3.707107 0.653282
v 0.191342 -3.195090 0.961940
v 0.180240 -3.382683 0.906128
v 0.162212 -3.555570 0.815493
v 0.137950 -3.707107 0.693520
v 0.108386 -3.831470 0.544895
v 0.074658 -3.923880 0.375331
v 0.038060 -3.980785 0.191342
v 0.195090 -3.000000 0.980786
v 0.000000 -3.831470 0.555570
v 0.000000 -3.923880 0.382684
v 0.000000 -3.980785 0.195091
v 0.000000 -3.000000 1.000000
v 0.000000 -3.195090 0.980785
v 0.000000 -3.382683 0.923880
v 0.000000 -3.555570 0.831470
v 0.000000 -3.707107 0.707107
v -0.180240 -3.382683 0.906128
v -0.162212 -3.555570 0.815493
v -0.137950 -3.707107 0.693520
v -0.108386 -3.831470 0.544895
v -0.074658 -3.923880 0.375331
v -0.038060 -3.980785 0.191342
v -0.195090 -3.000000 0.980786
v -0.191342 -3.195090 0.961940
v -0.146447 -3.923880 0.353554
v -0.074658 -3.980785 0.180240
v -0.382684 -3.000000 0.923880
v -0.375330 -3.195090 0.906127
v -0.353553 -3.382683 0.853554
v -0.318190 -3.555570 0.768178
v -0.270598 -3.707107 0.653282
v -0.212608 -3.831470 0.513280
v -0.461940 -3.555570 0.691342
v -0.392847 -3.707107 0.587938
v -0.308658 -3.831470 0.461940
v -0.212607 -3.923880 0.318190
v -0.108386 -3.980785 0.162212
v -0.555570 -3.000000 0.831470
v -0.544895 -3.195090 0.815493
v -0.513280 -3.382683 0.768178
v -0.137950 -3.980785 0.137950
v -0.707107 -3.000000 0.707107
v -0.693520 -3.195090 0.693520
v -0.653281 -3.382683 0.653282
v -0.587938 -3.555570 0.587938
v -0.500000 -3.707107 0.500000
v -0.392847 -3.831470 0.392848
v -0.270598 -3.923880 0.270598
v -0.691342 -3.555570 0.461940
v -0.587938 -3.707107 0.392848
v -0.461940 -3.831470 0.308658
v -0.318190 -3.923880 0.212608
v -0.162212 -3.980785 0.108387
v -0.831470 -3.000000 0.555570
v -0.815493 -3.195090 0.544895
v -0.768178 -3.382683 0.513280
v -0.180240 -3.980785 0.074658
v -0.923880 -3.000000 0.382684
v -0.906127 -3.195090 0.375330
v -0.853553 -3.382683 0.353554
v -0.768177 -3.555570 0.318190
v -0.653281 -3.707107 0.270598
v -0.513280 -3.831470 0.212608
v -0.353553 -3.923880 0.146447
v -0.693520 -3.707107 0.137950
v -0.544895 -3.831470 0.108387
v -0.375330 -3.923880 0.074658
v -0.191342 -3.980785 0.038061
v -0.980785 -3.000000 0.195090
v -0.961939 -3.195090 0.191342
v -0.906127 -3.382683 0.180240
v -0.815493 -3.555570 0.162212
v -1.000000 -3.000000 -0.000000
v -0.980785 -3.195090 -0.000000
v -0.923879 -3.382683 -0.000000
v -0.831469 -3.555570 -0.000000
v -0.707107 -3.707107 -0.000000
v -0.555570 -3.831470 -0.000000
v -0.382683 -3.923880 -0.000000
v -0.195090 -3.980785 -0.000000
v -0.693520 -3.707107 -0.137949
v -0.544895 -3.831470 -0.108386
v -0.375330 -3.923880 -0.074658
v -0.191342 -3.980785 -0.038060
v -0.980785 -3.000000 -0.195090
v -0.961939 -3.195090 -0.191342
v -0.906127 -3.382683 -0.180240
v -0.815493 -3.555570 -0.162211
v -0.906127 -3.195090 -0.375330
v -0.853553 -3.382683 -0.353553
v -0.768177 -3.555570 -0.318189
v -0.653281 -3.707107 -0.270598
v -0.513280 -3.831470 -0.212607
v -0.353553 -3.923880 -0.146446
v -0.180240 -3.980785 -0.074657
v -0.923879 -3.000000 -0.382683
v -0.461940 -3.831470 -0.308658
v -0.318189 -3.923880 -0.212607
v -0.162212 -3.980785 -0.108386
v -0.831469 -3.000000 -0.555570
v -0.815493 -3.195090 -0.544895
v -0.768178 -3.382683 -0.513280
v -0.691341 -3.555570 -0.461939
v -0.587938 -3.707107 -0.392847
v -0.653281 -3.382683 -0.653281
v -0.587937 -3.555570 -0.587937
v -0.500000 -3.707107 -0.500000
v -0.555570 -3.000000 -0.831469
v -0.707106 -3.000000 -0.707106
v 0.000000 0.000000 0.000000
v -0.392847 -3.831470 -0.392847
v -0.270598 -3.923880 -0.270598
v -0.137950 -3.980785 -0.137949
v -0.195090 -3.000000 -0.980785
v -0.693519 -3.195090 -0.693519
v -0.212607 -3.923880 -0.318189
v -0.108386 -3.980785 -0.162211
v -0.544895 -3.195090 -0.815492
v -0.513280 -3.382683 -0.768177
v -0.461939 -3.555570 -0.691341
v -0.392847 -3.707107 -0.587937
v -0.308658 -3.831470 -0.461939
v -0.353553 -3.382683 -0.853553
v -0.318189 -3.555570 -0.768177
v -0.270598 -3.707107 -0.653281
v -0.212607 -3.831470 -0.513279
v -0.146446 -3.923880 -0.353553
v -0.074658 -3.980785 -0.180240
v -0.382683 -3.000000 -0.923879
v -0.375330 -3.195090 -0.906127
v -0.074658 -3.923880 -0.375330
v -0.038060 -3.980785 -0.191341
v -0.191341 -3.195090 -0.961939
v -0.180240 -3.382683 -0.906127
v -0.162211 -3.555570 -0.815492
v -0.137950 -3.707107 -0.693520
v -0.108386 -3.831470 -0.544895
vn -0.0000 -0.5528 -0.8333
vn -0.0000 -0.3805 -0.9248
vn 0.1804 -0.3805 -0.9070
vn 0.1626 -0.5528 -0.8173
vn -0.0000 -0.7041 -0.7101
vn 0.1385 -0.7041 -0.6965
vn -0.0000 -0.8286 -0.5598
vn 0.1092 -0.8286 -0.5490
vn -0.0000 -0.9217 -0.3879
vn 0.0757 -0.9217 -0.3804
vn -0.0000 -0.9796 -0.2010
vn 0.0392 -0.9796 -0.1971
vn -0.0000 -1.0000 -0.0000
vn -0.0000 -0.1939 -0.9810
vn -0.0000 0.1101 -0.9939
vn 0.1939 0.1101 -0.9748
vn 0.1914 -0.1939 -0.9622
vn 0.3754 -0.1939 -0.9063
vn 0.3539 -0.3805 -0.8544
vn 0.3189 -0.5528 -0.7699
vn 0.2718 -0.7041 -0.6561
vn 0.2142 -0.8286 -0.5172
vn 0.1484 -0.9217 -0.3584
vn 0.0769 -0.9796 -0.1857
vn 0.3804 0.1101 -0.9183
vn 0.3110 -0.8286 -0.4654
vn 0.2155 -0.9217 -0.3225
vn 0.1117 -0.9796 -0.1671
vn 0.5522 0.1101 -0.8264
vn 0.5450 -0.1939 -0.8157
vn 0.5138 -0.3805 -0.7689
vn 0.4630 -0.5528 -0.6929
vn 0.3945 -0.7041 -0.5905
vn 0.6539 -0.3805 -0.6539
vn 0.5893 -0.5528 -0.5893
vn 0.5021 -0.7041 -0.5021
vn 0.3958 -0.8286 -0.3958
vn 0.2743 -0.9217 -0.2743
vn 0.1421 -0.9796 -0.1421
vn 0.7028 0.1101 -0.7028
vn 0.6937 -0.1939 -0.6937
vn 0.3225 -0.9217 -0.2155
vn 0.1671 -0.9796 -0.1116
vn 0.8264 0.1101 -0.5522
vn 0.8157 -0.1939 -0.5450
vn 0.7689 -0.3805 -0.5138
vn 0.6929 -0.5528 -0.4630
vn 0.5905 -0.7041 -0.3945
vn 0.4654 -0.8286 -0.3110
vn 0.8544 -0.3805 -0.3539
vn 0.7699 -0.5528 -0.3189
vn 0.6561 -0.7041 -0.2718
vn 0.5172 -0.8286 -0.2142
vn 0.3584 -0.9217 -0.1484
vn 0.1857 -0.9796 -0.0769
vn 0.9183 0.1101 -0.3804
vn 0.9063 -0.1939 -0.3754
vn 0.3804 -0.9217 -0.0757
vn 0.1971 -0.9796 -0.0392
vn 0.9748 0.1101 -0.1939
vn 0.9622 -0.1939 -0.1914
vn 0.9070 -0.3805 -0.1804
vn 0.8173 -0.5528 -0.1626
vn 0.6965 -0.7041 -0.1385
vn 0.5490 -0.8286 -0.1092
vn 0.8333 -0.5528 0.0000
vn 0.7101 -0.7041 0.0000
vn 0.5598 -0.8286 -0.0000
vn 0.3879 -0.9217 -0.0000
vn 0.2010 -0.9796 -0.0000
vn 0.9939 0.1101 -0.0000
vn 0.9810 -0.1939 -0.0000
vn 0.9248 -0.3805 -0.0000
vn 0.1971 -0.9796 0.0392
vn 0.9748 0.1101 0.1939
vn 0.9622 -0.1939 0.1914
vn 0.9070 -0.3805 0.1804
vn 0.8173 -0.5528 0.1626
vn 0.6965 -0.7041 0.1385
vn 0.5490 -0.8286 0.1092
vn 0.3804 -0.9217 0.0757
vn 0.6561 -0.7041 0.2718
vn 0.5172 -0.8286 0.2142
vn 0.3584 -0.9217 0.1484
vn 0.1857 -0.9796 0.0769
vn 0.9183 0.1101 0.3804
vn 0.9063 -0.1939 0.3754
vn 0.8544 -0.3805 0.3539
vn 0.7699 -0.5528 0.3189
vn 0.8264 0.1101 0.5522
vn 0.8157 -0.1939 0.5450
vn 0.7689 -0.3805 0.5138
vn 0.6929 -0.5528 0.4630
vn 0.5905 -0.7041 0.3945
vn 0.4654 -0.8286 0.3110
vn 0.3225 -0.9217 0.2155
vn 0.1671 -0.9796 0.1116
vn 0.5021 -0.7041 0.5021
vn 0.3958 -0.8286 0.3958
vn 0.2743 -0.9217 0.2743
vn 0.1421 -0.9796 0.1421
vn 0.7028 0.1101 0.7028
vn 0.6937 -0.1939 0.6937
vn 0.6539 -0.3805 0.6539
vn 0.5893 -0.5528 0.5893
vn 0.5450 -0.1939 0.8157
vn 0.5138 -0.3805 0.7689
vn 0.4630 -0.5528 0.6929
vn 0.3945 -0.7041 0.5905
vn 0.3110 -0.8286 0.4654
vn 0.2155 -0.9217 0.3225
vn 0.1117 -0.9796 0.1671
vn 0.5522 0.1101 0.8264
vn 0.2142 -0.8286 0.5172
vn 0.1484 -0.9217 0.3584
vn 0.0769 -0.9796 0.1857
vn 0.3804 0.1101 0.9183
vn 0.3754 -0.1939 0.9063
vn 0.3539 -0.3805 0.8544
vn 0.3189 -0.5528 0.7699
vn 0.2718 -0.7041 0.6561
vn 0.1914 -0.1939 0.9622
vn 0.1804 -0.3805 0.9070
vn 0.1626 -0.5528 0.8173
vn 0.1385 -0.7041 0.6965
vn 0.1092 -0.8286 0.5490
vn 0.0757 -0.9217 0.3804
vn 0.0392 -0.9796 0.1971
vn 0.1939 0.1101 0.9748
vn 0.0000 -0.8286 0.5598
vn 0.0000 -0.9217 0.3879
vn 0.0000 -0.9796 0.2010
vn -0.0000 0.1101 0.9939
vn -0.0000 -0.1939 0.9810
vn -0.0000 -0.3805 0.9248
vn 0.0000 -0.5528 0.8333
vn 0.0000 -0.7041 0.7101
vn -0.1804 -0.3805 0.9070
vn -0.1626 -0.5528 0.8173
vn -0.1385 -0.7041 0.6965
vn -0.1092 -0.8286 0.5490
vn -0.0757 -0.9217 0.3804
vn -0.0392 -0.9796 0.1971
vn -0.1939 0.1101 0.9748
vn -0.1914 -0.1939 0.9622
vn -0.1484 -0.9217 0.3584
vn -0.0769 -0.9796 0.1857
vn -0.3804 0.1101 0.9183
vn -0.3754 -0.1939 0.9063
vn -0.3539 -0.3805 0.8544
vn -0.3189 -0.5528 0.7699
vn -0.2718 -0.7041 0.6561
vn -0.2142 -0.8286 0.5172
vn -0.4630 -0.5528 0.6929
vn -0.3945 -0.7041 0.5905
vn -0.3110 -0.8286 0.4654
vn -0.2155 -0.9217 0.3225
vn -0.1117 -0.9796 0.1671
vn -0.5522 0.1101 0.8264
vn -0.5450 -0.1939 0.8157
vn -0.5138 -0.3805 0.7689
vn -0.1421 -0.9796 0.1421
vn -0.7028 0.1101 0.7028
vn -0.6937 -0.1939 0.6937
vn -0.6539 -0.3805 0.6539
vn -0.5893 -0.5528 0.5893
vn -0.5021 -0.7041 0.5021
vn -0.3958 -0.8286 0.3958
vn -0.2743 -0.9217 0.2743
vn -0.6929 -0.5528 0.4630
vn -0.5905 -0.7041 0.3945
vn -0.4654 -0.8286 0.3110
vn -0.3225 -0.9217 0.2155
vn -0.1671 -0.9796 0.1116
vn -0.8264 0.1101 0.5522
vn -0.8157 -0.1939 0.5450
vn -0.7689 -0.3805 0.5138
vn -0.1857 -0.9796 0.0769
vn -0.9183 0.1101 0.3804
vn -0.9063 -0.1939 0.3754
vn -0.8544 -0.3805 0.3539
vn -0.7699 -0.5528 0.3189
vn -0.6561 -0.7041 0.2718
vn -0.5172 -0.8286 0.2142
vn -0.3584 -0.9217 0.1484
vn -0.6965 -0.7041 0.1385
vn -0.5490 -0.8286 0.1092
vn -0.3804 -0.9217 0.0757
vn -0.1971 -0.9796 0.0392
vn -0.9748 0.1101 0.1939
vn -0.9622 -0.1939 0.1914
vn -0.9070 -0.3805 0.1804
vn -0.8173 -0.5528 0.1626
vn -0.9939 0.1101 0.0000
vn -0.9810 -0.1939 0.0000
vn -0.9248 -0.3805 0.0000
vn -0.8333 -0.5528 -0.0000
vn -0.7101 -0.7041 -0.0000
vn -0.5598 -0.8286 -0.0000
vn -0.3879 -0.9217 -0.0000
vn -0.2010 -0.9796 -0.0000
vn -0.6965 -0.7041 -0.1385
vn -0.5490 -0.8286 -0.1092
vn -0.3804 -0.9217 -0.0757
vn -0.1971 -0.9796 -0.0392
vn -0.9748 0.1101 -0.1939
vn -0.9622 -0.1939 -0.1914
vn -0.9070 -0.3805 -0.1804
vn -0.8173 -0.5528 -0.1626
vn -0.9063 -0.1939 -0.3754
vn -0.8544 -0.3805 -0.3539
vn -0.7699 -0.5528 -0.3189
vn -0.6561 -0.7041 -0.2718
vn -0.5172 -0.8286 -0.2142
vn -0.3584 -0.9217 -0.1484
vn -0.1857 -0.9796 -0.0769
vn -0.9183 0.1101 -0.3804
vn -0.4654 -0.8286 -0.3110
vn -0.3225 -0.9217 -0.2155
vn -0.1671 -0.9796 -0.1117
vn -0.8264 0.1101 -0.5522
vn -0.8157 -0.1939 -0.5450
vn -0.7689 -0.3805 -0.5138
vn -0.6929 -0.5528 -0.4630
vn -0.5905 -0.7041 -0.3945
vn -0.6539 -0.3805 -0.6539
vn -0.5893 -0.5528 -0.5893
vn -0.5021 -0.7041 -0.5021
vn -0.5522 0.1101 -0.8264
vn -0.7028 0.1101 -0.7028
vn -0.0000 1.0000 0.0000
vn -0.3958 -0.8286 -0.3958
vn -0.2743 -0.9217 -0.2743
vn -0.1421 -0.9796 -0.1421
vn -0.1939 0.1101 -0.9748
vn -0.6937 -0.1939 -0.6937
vn -0.2155 -0.9217 -0.3225
vn -0.1117 -0.9796 -0.1671
vn -0.5450 -0.1939 -0.8157
vn -0.5138 -0.3805 -0.7689
vn -0.4630 -0.5528 -0.6929
vn -0.3945 -0.7041 -0.5905
vn -0.3110 -0.8286 -0.4654
vn -0.3539 -0.3805 -0.8544
vn -0.3189 -0.5528 -0.7699
vn -0.2718 -0.7041 -0.6561
vn -0.2142 -0.8286 -0.5172
vn -0.1484 -0.9217 -0.3584
vn -0.0769 -0.9796 -0.1857
vn -0.3804 0.1101 -0.9183
vn -0.3754 -0.1939 -0.9063
vn -0.0757 -0.9217 -0.3804
vn -0.0392 -0.9796 -0.1971
vn -0.1914 -0.1939 -0.9622
vn -0.1804 -0.3805 -0.9070
vn -0.1626 -0.5528 -0.8173
vn -0.1385 -0.7041 -0.6965
vn -0.1092 -0.8286 -0.5490
usemtl None.001
s 1
f 1//1 2//2 3//3 4//4
f 5//5 1//1 4//4 6//6
f 7//7 5//5 6//6 8//8
f 9//9 7//7 8//8 10//10
f 11//11 9//9 10//10 12//12
f 13//13 11//11 12//12
f 14//14 15//15 16//16 17//17
f 2//2 14//14 17//17 3//3
f 3//3 17//17 18//18 19//19
f 4//4 3//3 19//19 20//20
f 6//6 4//4 20//20 21//21
f 8//8 6//6 21//21 22//22
f 10//10 8//8 22//22 23//23
f 12//12 10//10 23//23 24//24
f 13//13 12//12 24//24
f 17//17 16//16 25//25 18//18
f 23//23 22//22 26//26 27//27
f 24//24 23//23 27//27 28//28
f 13//13 24//24 28//28
f 18//18 25//25 29//29 30//30
f 19//19 18//18 30//30 31//31
f 20//20 19//19 31//31 32//32
f 21//21 20//20 32//32 33//33
f 22//22 21//21 33//33 26//26
f 32//32 31//31 34//34 35//35
f 33//33 32//32 35//35 36//36
f 26//26 33//33 36//36 37//37
f 27//27 26//26 37//37 38//38
f 28//28 27//27 38//38 39//39
f 13//13 28//28 39//39
f 30//30 29//29 40//40 41//41
f 31//31 30//30 41//41 34//34
f 39//39 38//38 42//42 43//43
f 13//13 39//39 43//43
f 41//41 40//40 44//44 45//45
f 34//34 41//41 45//45 46//46
f 35//35 34//34 46//46 47//47
f 36//36 35//35 47//47 48//48
f 37//37 36//36 48//48 49//49
f 38//38 37//37 49//49 42//42
f 47//47 46//46 50//50 51//51
f 48//48 47//47 51//51 52//52
f 49//49 48//48 52//52 53//53
f 42//42 49//49 53//53 54//54
f 43//43 42//42 54//54 55//55
f 13//13 43//43 55//55
f 45//45 44//44 56//56 57//57
f 46//46 45//45 57//57 50//50
f 55//55 54//54 58//58 59//59
f 13//13 55//55 59//59
f 57//57 56//56 60//60 61//61
f 50//50 57//57 61//61 62//62
f 51//51 50//50 62//62 63//63
f 52//52 51//51 63//63 64//64
f 53//53 52//52 64//64 65//65
f 54//54 53//53 65//65 58//58
f 64//64 63//63 66//66 67//67
f 65//65 64//64 67//67 68//68
f 58//58 65//65 68//68 69//69
f 59//59 58//58 69//69 70//70
f 13//13 59//59 70//70
f 61//61 60//60 71//71 72//72
f 62//62 61//61 72//72 73//73
f 63//63 62//62 73//73 66//66
f 13//13 70//70 74//74
f 72//72 71//71 75//75 76//76
f 73//73 72//72 76//76 77//77
f 66//66 73//73 77//77 78//78
f 67//67 66//66 78//78 79//79
f 68//68 67//67 79//79 80//80
f 69//69 68//68 80//80 81//81
f 70//70 69//69 81//81 74//74
f 80//80 79//79 82//82 83//83
f 81//81 80//80 83//83 84//84
f 74//74 81//81 84//84 85//85
f 13//13 74//74 85//85
f 76//76 75//75 86//86 87//87
f 77//77 76//76 87//87 88//88
f 78//78 77//77 88//88 89//89
f 79//79 78//78 89//89 82//82
f 87//87 86//86 90//90 91//91
f 88//88 87//87 91//91 92//92
f 89//89 88//88 92//92 93//93
f 82//82 89//89 93//93 94//94
f 83//83 82//82 94//94 95//95
f 84//84 83//83 95//95 96//96
f 85//85 84//84 96//96 97//97
f 13//13 85//85 97//97
f 95//95 94//94 98//98 99//99
f 96//96 95//95 99//99 100//100
f 97//97 96//96 100//100 101//101
f 13//13 97//97 101//101
f 91//91 90//90 102//102 103//103
f 92//92 91//91 103//103 104//104
f 93//93 92//92 104//104 105//105
f 94//94 93//93 105//105 98//98
f 104//104 103//103 106//106 107//107
f 105//105 104//104 107//107 108//108
f 98//98 105//105 108//108 109//109
f 99//99 98//98 109//109 110//110
f 100//100 99//99 110//110 111//111
f 101//101 100//100 111//111 112//112
f 13//13 101//101 112//112
f 103//103 102//102 113//113 106//106
f 111//111 110//110 114//114 115//115
f 112//112 111//111 115//115 116//116
f 13//13 112//112 116//116
f 106//106 113//113 117//117 118//118
f 107//107 106//106 118//118 119//119
f 108//108 107//107 119//119 120//120
f 109//109 108//108 120//120 121//121
f 110//110 109//109 121//121 114//114
f 119//119 118//118 122//122 123//123
f 120//120 119//119 123//123 124//124
f 121//121 120//120 124//124 125//125
f 114//114 121//121 125//125 126//126
f 115//115 114//114 126//126 127//127
f 116//116 115//115 127//127 128//128
f 13//13 116//116 128//128
f 118//118 117//117 129//129 122//122
f 127//127 126//126 130//130 131//131
f 128//128 127//127 131//131 132//132
f 13//13 128//128 132//132
f 122//122 129//129 133//133 134//134
f 123//123 122//122 134//134 135//135
f 124//124 123//123 135//135 136//136
f 125//125 124//124 136//136 137//137
f 126//126 125//125 137//137 130//130
f 136//136 135//135 138//138 139//139
f 137//137 136//136 139//139 140//140
f 130//130 137//137 140//140 141//141
f 131//131 130//130 141//141 142//142
f 132//132 131//131 142//142 143//143
f 13//13 132//132 143//143
f 134//134 133//133 144//144 145//145
f 135//135 134//134 145//145 138//138
f 143//143 142//142 146//146 147//147
f 13//13 143//143 147//147
f 145//145 144//144 148//148 149//149
f 138//138 145//145 149//149 150//150
f 139//139 138//138 150//150 151//151
f 140//140 139//139 151//151 152//152
f 141//141 140//140 152//152 153//153
f 142//142 141//141 153//153 146//146
f 152//152 151//151 154//154 155//155
f 153//153 152//152 155//155 156//156
f 146//146 153//153 156//156 157//157
f 147//147 146//146 157//157 158//158
f 13//13 147//147 158//158
f 149//149 148//148 159//159 160//160
f 150//150 149//149 160//160 161//161
f 151//151 150//150 161//161 154//154
f 13//13 158//158 162//162
f 160//160 159//159 163//163 164//164
f 161//161 160//160 164//164 165//165
f 154//154 161//161 165//165 166//166
f 155//155 154//154 166//166 167//167
f 156//156 155//155 167//167 168//168
f 157//157 156//156 168//168 169//169
f 158//158 157//157 169//169 162//162
f 167//167 166//166 170//170 171//171
f 168//168 167//167 171//171 172//172
f 169//169 168//168 172//172 173//173
f 162//162 169//169 173//173 174//174
f 13//13 162//162 174//174
f 164//164 163//163 175//175 176//176
f 165//165 164//164 176//176 177//177
f 166//166 165//165 177//177 170//170
f 13//13 174//174 178//178
f 176//176 175//175 179//179 180//180
f 177//177 176//176 180//180 181//181
f 170//170 177//177 181//181 182//182
f 171//171 170//170 182//182 183//183
f 172//172 171//171 183//183 184//184
f 173//173 172//172 184//184 185//185
f 174//174 173//173 185//185 178//178
f 184//184 183//183 186//186 187//187
f 185//185 184//184 187//187 188//188
f 178//178 185//185 188//188 189//189
f 13//13 178//178 189//189
f 180//180 179//179 190//190 191//191
f 181//181 180//180 191//191 192//192
f 182//182 181//181 192//192 193//193
f 183//183 182//182 193//193 186//186
f 191//191 190//190 194//194 195//195
f 192//192 191//191 195//195 196//196
f 193//193 192//192 196//196 197//197
f 186//186 193//193 197//197 198//198
f 187//187 186//186 198//198 199//199
f 188//188 187//187 199//199 200//200
f 189//189 188//188 200//200 201//201
f 13//13 189//189 201//201
f 199//199 198//198 202//202 203//203
f 200//200 199//199 203//203 204//204
f 201//201 200//200 204//204 205//205
f 13//13 201//201 205//205
f 195//195 194//194 206//206 207//207
f 196//196 195//195 207//207 208//208
f 197//197 196//196 208//208 209//209
f 198//198 197//197 209//209 202//202
f 208//208 207//207 210//210 211//211
f 209//209 208//208 211//211 212//212
f 202//202 209//209 212//212 213//213
f 203//203 202//202 213//213 214//214
f 204//204 203//203 214//214 215//215
f 205//205 204//204 215//215 216//216
f 13//13 205//205 216//216
f 207//207 206//206 217//217 210//210
f 215//215 214//214 218//218 219//219
f 216//216 215//215 219//219 220//220
f 13//13 216//216 220//220
f 210//210 217//217 221//221 222//222
f 211//211 210//210 222//222 223//223
f 212//212 211//211 223//223 224//224
f 213//213 212//212 224//224 225//225
f 214//214 213//213 225//225 218//218
f 224//224 223//223 226//226 227//227
f 225//225 224//224 227//227 228//228
f 229//229 230//230 231//231
f 218//218 225//225 228//228 232//232
f 44//44 40//40 231//231
f 219//219 218//218 232//232 233//233
f 194//194 190//190 231//231
f 220//220 219//219 233//233 234//234
f 15//15 235//235 231//231
f 13//13 220//220 234//234
f 222//222 221//221 230//230 236//236
f 223//223 222//222 236//236 226//226
f 221//221 217//217 231//231
f 234//234 233//233 237//237 238//238
f 29//29 25//25 231//231
f 13//13 234//234 238//238
f 236//236 230//230 229//229 239//239
f 133//133 129//129 231//231
f 226//226 236//236 239//239 240//240
f 71//71 60//60 231//231
f 227//227 226//226 240//240 241//241
f 159//159 148//148 231//231
f 228//228 227//227 241//241 242//242
f 179//179 175//175 231//231
f 232//232 228//228 242//242 243//243
f 90//90 86//86 231//231
f 233//233 232//232 243//243 237//237
f 241//241 240//240 244//244 245//245
f 117//117 113//113 231//231
f 242//242 241//241 245//245 246//246
f 75//75 71//71 231//231
f 243//243 242//242 246//246 247//247
f 206//206 194//194 231//231
f 237//237 243//243 247//247 248//248
f 144//144 133//133 231//231
f 238//238 237//237 248//248 249//249
f 230//230 221//221 231//231
f 13//13 238//238 249//249
f 239//239 229//229 250//250 251//251
f 250//250 229//229 231//231
f 240//240 239//239 251//251 244//244
f 56//56 44//44 231//231
f 249//249 248//248 252//252 253//253
f 217//217 206//206 231//231
f 13//13 249//249 253//253
f 251//251 250//250 235//235 254//254
f 16//16 15//15 231//231
f 244//244 251//251 254//254 255//255
f 40//40 29//29 231//231
f 245//245 244//244 255//255 256//256
f 102//102 90//90 231//231
f 246//246 245//245 256//256 257//257
f 190//190 179//179 231//231
f 247//247 246//246 257//257 258//258
f 129//129 117//117 231//231
f 248//248 247//247 258//258 252//252
f 163//163 159//159 231//231
f 60//60 56//56 231//231
f 257//257 256//256 1//1 5//5
f 86//86 75//75 231//231
f 258//258 257//257 5//5 7//7
f 175//175 163//163 231//231
f 252//252 258//258 7//7 9//9
f 113//113 102//102 231//231
f 253//253 252//252 9//9 11//11
f 148//148 144//144 231//231
f 13//13 253//253 11//11
f 254//254 235//235 15//15 14//14
f 235//235 250//250 231//231
f 255//255 254//254 14//14 2//2
f 25//25 16//16 231//231
f 256//256 255//255 2//2 1//1
