# Blender v2.79 (sub 0) OBJ File: ''
# www.blender.org
mtllib arrow.mtl
o Cylinder
v -0.000000 -0.000137 0.000000
v -0.000000 1.000000 0.000000
v -0.000000 -0.000137 -1.000000
v 0.195090 -0.000137 -0.980785
v 0.382683 -0.000137 -0.923879
v 0.555570 -0.000137 -0.831469
v 0.707107 -0.000137 -0.707107
v 0.831470 -0.000137 -0.555570
v 0.923879 -0.000137 -0.382683
v 0.980785 -0.000137 -0.195090
v 1.000000 -0.000137 0.000000
v 0.980785 -0.000137 0.195090
v 0.923880 -0.000137 0.382684
v 0.831470 -0.000137 0.555570
v 0.707107 -0.000137 0.707107
v 0.555570 -0.000137 0.831470
v 0.382683 -0.000137 0.923880
v 0.195090 -0.000137 0.980786
v -0.000000 -0.000137 1.000000
v -0.195091 -0.000137 0.980785
v -0.382684 -0.000137 0.923880
v -0.555571 -0.000137 0.831470
v -0.707107 -0.000137 0.707107
v -0.831470 -0.000137 0.555570
v -0.923880 -0.000137 0.382683
v -0.980786 -0.000137 0.195090
v -1.000000 -0.000137 -0.000001
v -0.980785 -0.000137 -0.195091
v -0.923879 -0.000137 -0.382684
v -0.831469 -0.000137 -0.555571
v -0.707106 -0.000137 -0.707108
v -0.555569 -0.000137 -0.831470
v -0.382682 -0.000137 -0.923880
v -0.195089 -0.000137 -0.980785
v -0.000000 -0.000137 -1.000000
v 0.195090 -0.000137 -0.980785
v 0.382683 -0.000137 -0.923879
v 0.555570 -0.000137 -0.831469
v 0.707107 -0.000137 -0.707107
v 0.831470 -0.000137 -0.555570
v 0.923879 -0.000137 -0.382683
v 0.980785 -0.000137 -0.195090
v 1.000000 -0.000137 0.000000
v 0.980785 -0.000137 0.195090
v 0.923880 -0.000137 0.382684
v 0.831470 -0.000137 0.555570
v 0.707107 -0.000137 0.707107
v 0.555570 -0.000137 0.831470
v 0.382683 -0.000137 0.923880
v 0.195090 -0.000137 0.980786
v -0.000000 -0.000137 1.000000
v -0.195091 -0.000137 0.980785
v -0.382684 -0.000137 0.923880
v -0.555571 -0.000137 0.831470
v -0.707107 -0.000137 0.707107
v -0.831470 -0.000137 0.555570
v -0.923880 -0.000137 0.382683
v -0.980786 -0.000137 0.195090
v -1.000000 -0.000137 -0.000001
v -0.980785 -0.000137 -0.195091
v -0.923879 -0.000137 -0.382684
v -0.831469 -0.000137 -0.555571
v -0.707106 -0.000137 -0.707108
v -0.555569 -0.000137 -0.831470
v -0.382682 -0.000137 -0.923880
v -0.195089 -0.000137 -0.980785
vn 0.0000 -1.0000 0.0000
vn 0.0000 0.7071 -0.7071
vn 0.0000 1.0000 0.0000
vn 0.1379 0.7071 -0.6936
vn 0.2706 0.7071 -0.6533
vn 0.3929 0.7071 -0.5880
vn 0.5000 0.7071 -0.5000
vn 0.5880 0.7071 -0.3929
vn 0.6533 0.7071 -0.2706
vn 0.6936 0.7071 -0.1379
vn 0.7071 0.7071 0.0000
vn 0.6936 0.7071 0.1379
vn 0.6533 0.7071 0.2706
vn 0.5880 0.7071 0.3929
vn 0.5000 0.7071 0.5000
vn 0.3929 0.7071 0.5880
vn 0.2706 0.7071 0.6533
vn 0.1379 0.7071 0.6936
vn 0.0000 0.7071 0.7071
vn -0.1379 0.7071 0.6936
vn -0.2706 0.7071 0.6533
vn -0.3929 0.7071 0.5880
vn -0.5000 0.7071 0.5000
vn -0.5880 0.7071 0.3929
vn -0.6533 0.7071 0.2706
vn -0.6936 0.7071 0.1379
vn -0.7071 0.7071 0.0000
vn -0.6936 0.7071 -0.1379
vn -0.6533 0.7071 -0.2706
vn -0.5880 0.7071 -0.3929
vn -0.5000 0.7071 -0.5000
vn -0.3929 0.7071 -0.5880
vn -0.2706 0.7071 -0.6533
vn -0.1379 0.7071 -0.6936
usemtl Material.001
s 1
f 1//1 35//1 36//1
f 3//2 2//3 4//4
f 1//1 36//1 37//1
f 4//4 2//3 5//5
f 1//1 37//1 38//1
f 5//5 2//3 6//6
f 1//1 38//1 39//1
f 6//6 2//3 7//7
f 1//1 39//1 40//1
f 7//7 2//3 8//8
f 1//1 40//1 41//1
f 8//8 2//3 9//9
f 1//1 41//1 42//1
f 9//9 2//3 10//10
f 1//1 42//1 43//1
f 10//10 2//3 11//11
f 1//1 43//1 44//1
f 11//11 2//3 12//12
f 1//1 44//1 45//1
f 12//12 2//3 13//13
f 1//1 45//1 46//1
f 13//13 2//3 14//14
f 1//1 46//1 47//1
f 14//14 2//3 15//15
f 1//1 47//1 48//1
f 15//15 2//3 16//16
f 1//1 48//1 49//1
f 16//16 2//3 17//17
f 1//1 49//1 50//1
f 17//17 2//3 18//18
f 1//1 50//1 51//1
f 18//18 2//3 19//19
f 1//1 51//1 52//1
f 19//19 2//3 20//20
f 1//1 52//1 53//1
f 20//20 2//3 21//21
f 1//1 53//1 54//1
f 21//21 2//3 22//22
f 1//1 54//1 55//1
f 22//22 2//3 23//23
f 1//1 55//1 56//1
f 23//23 2//3 24//24
f 1//1 56//1 57//1
f 24//24 2//3 25//25
f 1//1 57//1 58//1
f 25//25 2//3 26//26
f 1//1 58//1 59//1
f 26//26 2//3 27//27
f 1//1 59//1 60//1
f 27//27 2//3 28//28
f 1//1 60//1 61//1
f 28//28 2//3 29//29
f 1//1 61//1 62//1
f 29//29 2//3 30//30
f 1//1 62//1 63//1
f 30//30 2//3 31//31
f 1//1 63//1 64//1
f 31//31 2//3 32//32
f 1//1 64//1 65//1
f 32//32 2//3 33//33
f 1//1 65//1 66//1
f 33//33 2//3 34//34
f 1//1 66//1 35//1
f 34//34 2//3 3//2
